<?xml version="1.0" encoding="UTF-8"?>
<svg id="Layer_1" data-name="Layer 1" xmlns="http://www.w3.org/2000/svg" viewBox="0 0 31.81 28.05">
  <defs>
    <style>
      .cls-1 {
        fill: #6bcb77;
        stroke-width: 0px;
      }
    </style>
  </defs>
  <path class="cls-1" d="m30.13,4.74c-2.62-1.35-5.98-2.52-9.04-3.84-.1-.04-.17-.07-.21-.07-1.41-.54-2.94-.84-4.54-.84-.81,0-1.58.04-2.3.13-1.71.2-3.2.62-4.49,1.27-2.73,1.13-5.59,2.17-7.88,3.35C.07,5.57-.08,7.11.03,7.77c.29,1.77,1.5,6.4,1.75,7.32.21.79,1.08,1.38,2.14,1.52.6,3.2,2.12,6.02,4.27,8.07h0c1.1,1.04,2.36,1.89,3.73,2.47,1.38.58,2.87.9,4.43.9,1.77,0,3.47-.42,5-1.16,2.3-1.12,4.23-2.97,5.58-5.27.92-1.57,1.58-3.36,1.91-5.27.61-.27,1.06-.72,1.2-1.25.25-.92,1.46-5.55,1.75-7.32.11-.66-.04-2.2-1.65-3.03h0Zm-6.35,17.62c-.97,1.11-2.11,2-3.36,2.61s-2.62.95-4.07.95c-1.27,0-2.48-.26-3.6-.73-1.13-.48-2.17-1.17-3.09-2.05h0c-.26-.25-.52-.52-.76-.8,0,0,.01.01.02.02,5.41-2.79,10.14-8.14,9.8-14.17-.17-2.93-1.47-4.82-3.02-6.03.22,0,.43-.01.66-.01,1.47,0,2.85.29,4.11.83.5.22.99.47,1.45.76.39,1.07.9,2.51,1.52,4.46-.88,5.63,1.14,7.91,3.18,8.36-.48,2.25-1.48,4.24-2.84,5.81h0Z"/>
  <path class="cls-1" d="m16.58,19.12c-1.58,0-2.86,1.04-2.86,2.33s1.28,2.33,2.86,2.33,2.86-1.04,2.86-2.33-1.28-2.33-2.86-2.33Z"/>
</svg>