<?xml version="1.0" encoding="UTF-8"?>
<svg id="Layer_1" data-name="Layer 1" xmlns="http://www.w3.org/2000/svg" viewBox="0 0 998.42 266.05">
  <defs>
    <style>
      .cls-1 {
        fill: #6bcb77;
      }

      .cls-1, .cls-2 {
        stroke-width: 0px;
      }

      .cls-3 {
        isolation: isolate;
      }

      .cls-2 {
        fill: #ffa552;
      }
    </style>
  </defs>
  <g>
    <g class="cls-3">
      <g class="cls-3">
        <path class="cls-2" d="m349.43,124.42c-3.97,0-7.03-1.1-9.18-3.3-2.15-2.2-3.22-5.34-3.22-9.42V22.32c0-4.19,1.1-7.35,3.3-9.5,2.2-2.15,5.29-3.22,9.26-3.22h39.29c12.56,0,22.3,3.22,29.23,9.66,6.92,6.44,10.39,15.3,10.39,26.57s-3.46,20.32-10.39,26.81c-6.92,6.5-16.67,9.74-29.23,9.74h-26.89v29.31c0,4.08-1.05,7.22-3.14,9.42s-5.23,3.3-9.42,3.3Zm12.56-61.52h22.71c6.44,0,11.35-1.42,14.74-4.27,3.38-2.84,5.07-7.11,5.07-12.8s-1.69-9.77-5.07-12.56c-3.38-2.79-8.29-4.19-14.74-4.19h-22.71v33.82Z"/>
      </g>
      <g class="cls-3">
        <path class="cls-2" d="m452.5,124.42c-4.08,0-7.19-1.05-9.34-3.14-2.15-2.09-3.22-5.13-3.22-9.1v-57.17c0-3.97,1.05-7.01,3.14-9.1,2.09-2.09,5.07-3.14,8.94-3.14s6.66,1.05,8.7,3.14c2.04,2.09,3.06,5.13,3.06,9.1v8.37h-1.61c1.18-6.44,4-11.43,8.46-14.98,4.45-3.54,10.23-5.53,17.31-5.96,2.58-.21,4.59.46,6.04,2.01,1.45,1.56,2.28,4.16,2.5,7.81.11,3.22-.62,5.8-2.17,7.73-1.56,1.93-4.16,3.12-7.81,3.54l-3.7.32c-6.12.54-10.66,2.31-13.61,5.31-2.95,3.01-4.43,7.36-4.43,13.04v29.95c0,3.97-1.02,7.01-3.06,9.1-2.04,2.09-5.1,3.14-9.18,3.14Z"/>
        <path class="cls-2" d="m543.65,124.75c-8.48,0-15.84-1.66-22.06-4.99-6.23-3.33-11.09-8.08-14.57-14.25-3.49-6.17-5.23-13.5-5.23-21.98,0-6.33.97-12.02,2.9-17.07,1.93-5.05,4.75-9.37,8.46-12.96,3.7-3.6,8.16-6.33,13.37-8.21,5.21-1.88,10.92-2.82,17.15-2.82,8.48,0,15.86,1.67,22.14,4.99,6.28,3.33,11.16,8.08,14.65,14.25,3.49,6.17,5.23,13.45,5.23,21.82,0,6.34-.99,12.08-2.98,17.23-1.99,5.15-4.81,9.5-8.46,13.04-3.65,3.54-8.05,6.26-13.21,8.13-5.15,1.88-10.95,2.82-17.39,2.82Zm0-18.04c3.54,0,6.6-.83,9.18-2.5,2.58-1.66,4.61-4.21,6.12-7.65,1.5-3.43,2.25-7.78,2.25-13.04,0-7.84-1.61-13.61-4.83-17.31s-7.46-5.56-12.72-5.56c-3.44,0-6.47.81-9.1,2.42-2.63,1.61-4.67,4.13-6.12,7.57-1.45,3.44-2.17,7.73-2.17,12.88,0,7.95,1.61,13.8,4.83,17.55,3.22,3.76,7.41,5.64,12.56,5.64Z"/>
        <path class="cls-2" d="m621.11,153.41c-2.9,0-5.21-.72-6.92-2.17-1.72-1.45-2.79-3.38-3.22-5.8-.43-2.42,0-4.97,1.29-7.65l10.79-23.67v9.82l-28.5-65.38c-1.07-2.79-1.4-5.4-.97-7.81.43-2.42,1.61-4.35,3.54-5.8s4.67-2.17,8.21-2.17c3,0,5.39.64,7.17,1.93,1.77,1.29,3.3,3.92,4.59,7.89l19.16,47.99h-4.99l19.49-48.31c1.5-3.65,3.19-6.14,5.07-7.49,1.88-1.34,4.43-2.01,7.65-2.01,2.79,0,5.02.73,6.68,2.17,1.66,1.45,2.68,3.36,3.06,5.72.38,2.36-.08,4.94-1.37,7.73l-37.84,85.83c-1.61,3.65-3.41,6.09-5.39,7.33-1.99,1.23-4.48,1.85-7.49,1.85Z"/>
      </g>
      <g class="cls-3">
        <path class="cls-2" d="m724.01,124.75c-9.34,0-17.37-1.66-24.08-4.99-6.71-3.33-11.86-8.08-15.46-14.25-3.6-6.17-5.39-13.5-5.39-21.98s1.74-15.27,5.23-21.34c3.49-6.06,8.29-10.87,14.41-14.41,6.12-3.54,13.04-5.31,20.77-5.31,5.9,0,11.14.94,15.7,2.82,4.56,1.88,8.51,4.56,11.84,8.05,3.33,3.49,5.85,7.73,7.57,12.72,1.72,4.99,2.58,10.55,2.58,16.67,0,2.04-.64,3.57-1.93,4.59-1.29,1.02-3.17,1.53-5.64,1.53h-50.4v-12.56h40.42l-2.58,2.25c0-4.4-.64-8.08-1.93-11.03-1.29-2.95-3.14-5.21-5.56-6.76-2.42-1.55-5.4-2.33-8.94-2.33-3.97,0-7.35.91-10.15,2.74-2.79,1.83-4.94,4.48-6.44,7.97-1.5,3.49-2.25,7.65-2.25,12.48v1.29c0,8.16,1.88,14.17,5.64,18.04,3.76,3.87,9.45,5.8,17.07,5.8,2.58,0,5.5-.32,8.78-.97,3.27-.64,6.41-1.66,9.42-3.06,2.58-1.18,4.78-1.56,6.6-1.13,1.82.43,3.3,1.32,4.43,2.66,1.13,1.34,1.74,2.93,1.85,4.75.11,1.83-.3,3.62-1.21,5.39-.91,1.77-2.44,3.25-4.59,4.43-3.76,2.15-7.95,3.68-12.56,4.59-4.62.91-9.02,1.37-13.21,1.37Z"/>
      </g>
      <g class="cls-3">
        <path class="cls-2" d="m810.33,124.75c-8.59,0-16.05-1.66-22.38-4.99-6.34-3.33-11.25-8.1-14.74-14.33-3.49-6.23-5.23-13.58-5.23-22.06,0-6.33.97-12.02,2.9-17.07,1.93-5.05,4.75-9.34,8.46-12.88,3.7-3.54,8.18-6.25,13.45-8.13,5.26-1.88,11.11-2.82,17.55-2.82,3.33,0,6.9.4,10.71,1.21,3.81.81,7.54,2.12,11.19,3.95,2.04,1.18,3.46,2.63,4.27,4.35.81,1.72,1.1,3.52.89,5.39-.22,1.88-.89,3.54-2.01,4.99-1.13,1.45-2.55,2.42-4.27,2.9-1.72.48-3.65.19-5.8-.89-2.04-1.07-4.16-1.9-6.36-2.5-2.2-.59-4.27-.89-6.2-.89-3.22,0-6.07.51-8.54,1.53-2.47,1.02-4.54,2.47-6.2,4.35-1.67,1.88-2.95,4.21-3.87,7.01-.91,2.79-1.37,5.96-1.37,9.5,0,7.09,1.74,12.7,5.23,16.83,3.49,4.13,8.4,6.2,14.73,6.2,1.93,0,3.97-.27,6.12-.81,2.15-.54,4.29-1.39,6.44-2.58,2.15-1.07,4.05-1.34,5.72-.81,1.66.54,3.06,1.53,4.19,2.98,1.13,1.45,1.74,3.12,1.85,4.99.11,1.88-.24,3.68-1.05,5.4-.8,1.72-2.23,3.06-4.27,4.03-3.54,1.93-7.17,3.28-10.87,4.03-3.7.75-7.22,1.13-10.55,1.13Z"/>
      </g>
      <g class="cls-3">
        <path class="cls-2" d="m894.55,124.75c-7.41,0-13.61-1.21-18.6-3.62-4.99-2.42-8.67-5.98-11.03-10.71-2.36-4.72-3.54-10.68-3.54-17.88v-30.44h-7.09c-2.9,0-5.18-.78-6.84-2.33-1.66-1.56-2.5-3.78-2.5-6.68s.83-5.1,2.5-6.6c1.66-1.5,3.95-2.25,6.84-2.25h7.09v-12.4c0-4.08,1.05-7.14,3.14-9.18,2.09-2.04,5.07-3.06,8.94-3.06s7,1.02,9.1,3.06c2.09,2.04,3.14,5.1,3.14,9.18v12.4h14.98c3.11,0,5.48.75,7.09,2.25,1.61,1.5,2.42,3.7,2.42,6.6s-.81,5.13-2.42,6.68c-1.61,1.56-3.97,2.33-7.09,2.33h-14.98v29.47c0,4.51,1.02,7.87,3.06,10.06,2.04,2.2,5.37,3.3,9.98,3.3,1.61,0,3.14-.16,4.59-.48s2.66-.48,3.62-.48c1.5-.11,2.76.35,3.79,1.37,1.02,1.02,1.53,3.25,1.53,6.68,0,2.69-.4,4.99-1.21,6.92-.8,1.93-2.33,3.28-4.59,4.03-1.4.43-3.33.83-5.8,1.21-2.47.38-4.51.56-6.12.56Z"/>
      </g>
      <g class="cls-3">
        <path class="cls-2" d="m956.39,124.75c-8.48,0-15.84-1.66-22.06-4.99-6.23-3.33-11.09-8.08-14.57-14.25-3.49-6.17-5.23-13.5-5.23-21.98,0-6.33.97-12.02,2.9-17.07,1.93-5.05,4.75-9.37,8.46-12.96,3.7-3.6,8.16-6.33,13.37-8.21,5.21-1.88,10.92-2.82,17.15-2.82,8.48,0,15.86,1.67,22.14,4.99,6.28,3.33,11.16,8.08,14.65,14.25,3.49,6.17,5.23,13.45,5.23,21.82,0,6.34-.99,12.08-2.98,17.23-1.99,5.15-4.81,9.5-8.46,13.04-3.65,3.54-8.05,6.26-13.21,8.13-5.15,1.88-10.95,2.82-17.39,2.82Zm0-18.04c3.54,0,6.6-.83,9.18-2.5,2.58-1.66,4.61-4.21,6.12-7.65,1.5-3.43,2.25-7.78,2.25-13.04,0-7.84-1.61-13.61-4.83-17.31s-7.46-5.56-12.72-5.56c-3.44,0-6.47.81-9.1,2.42-2.63,1.61-4.67,4.13-6.12,7.57-1.45,3.44-2.17,7.73-2.17,12.88,0,7.95,1.61,13.8,4.83,17.55,3.22,3.76,7.41,5.64,12.56,5.64Z"/>
      </g>
    </g>
    <g class="cls-3">
      <g class="cls-3">
        <path class="cls-2" d="m349.68,262.69c-3.97,0-7.03-1.1-9.18-3.3-2.15-2.2-3.22-5.34-3.22-9.42v-90.67c0-4.19,1.07-7.35,3.22-9.5,2.15-2.15,5.21-3.22,9.18-3.22s7.19,1.07,9.34,3.22c2.15,2.15,3.22,5.31,3.22,9.5v34.3h52.66v-34.3c0-4.19,1.1-7.35,3.3-9.5,2.2-2.15,5.34-3.22,9.42-3.22s7.03,1.07,9.18,3.22c2.15,2.15,3.22,5.31,3.22,9.5v90.67c0,4.08-1.07,7.22-3.22,9.42-2.15,2.2-5.21,3.3-9.18,3.3s-7.22-1.1-9.42-3.3c-2.2-2.2-3.3-5.34-3.3-9.42v-35.75h-52.66v35.75c0,4.08-1.05,7.22-3.14,9.42s-5.23,3.3-9.42,3.3Z"/>
        <path class="cls-2" d="m491.4,263.01c-6.66,0-12.19-1.24-16.59-3.7-4.4-2.47-7.65-6.14-9.74-11.03-2.09-4.88-3.14-11.03-3.14-18.44v-36.56c0-4.08,1.05-7.14,3.14-9.18,2.09-2.04,5.07-3.06,8.94-3.06s6.87,1.02,9.02,3.06c2.15,2.04,3.22,5.1,3.22,9.18v37.04c0,4.62.97,8.11,2.9,10.47,1.93,2.36,4.94,3.54,9.02,3.54,4.72,0,8.56-1.64,11.51-4.91,2.95-3.27,4.43-7.59,4.43-12.96v-33.17c0-4.08,1.07-7.14,3.22-9.18,2.15-2.04,5.1-3.06,8.86-3.06,3.97,0,7,1.02,9.1,3.06,2.09,2.04,3.14,5.1,3.14,9.18v57.17c0,8.16-3.92,12.24-11.76,12.24-3.76,0-6.71-1.05-8.86-3.14-2.15-2.09-3.22-5.13-3.22-9.1v-10.95l2.58,6.44c-2.36,5.58-5.74,9.82-10.15,12.72-4.4,2.9-9.61,4.35-15.62,4.35Z"/>
        <path class="cls-2" d="m599.78,263.01c-9.34,0-17.37-1.66-24.08-4.99-6.71-3.33-11.86-8.08-15.46-14.25-3.6-6.17-5.39-13.5-5.39-21.98s1.74-15.27,5.23-21.34c3.49-6.06,8.29-10.87,14.41-14.41,6.12-3.54,13.04-5.31,20.77-5.31,5.9,0,11.14.94,15.7,2.82,4.56,1.88,8.51,4.56,11.84,8.05,3.33,3.49,5.85,7.73,7.57,12.72,1.72,4.99,2.58,10.55,2.58,16.67,0,2.04-.64,3.57-1.93,4.59-1.29,1.02-3.17,1.53-5.64,1.53h-50.41v-12.56h40.42l-2.58,2.25c0-4.4-.64-8.08-1.93-11.03-1.29-2.95-3.14-5.21-5.56-6.76-2.42-1.55-5.4-2.33-8.94-2.33-3.97,0-7.35.91-10.15,2.74-2.79,1.83-4.94,4.48-6.44,7.97-1.5,3.49-2.25,7.65-2.25,12.48v1.29c0,8.16,1.88,14.17,5.64,18.04,3.76,3.87,9.45,5.8,17.07,5.8,2.58,0,5.5-.32,8.78-.97,3.27-.64,6.41-1.66,9.42-3.06,2.58-1.18,4.78-1.56,6.6-1.13,1.82.43,3.3,1.32,4.43,2.66,1.13,1.34,1.74,2.93,1.85,4.75.11,1.83-.3,3.62-1.21,5.39-.91,1.77-2.44,3.25-4.59,4.43-3.76,2.15-7.95,3.68-12.56,4.59-4.62.91-9.02,1.37-13.21,1.37Z"/>
        <path class="cls-2" d="m677.24,263.01c-9.56,0-16.7-2.63-21.42-7.89-4.73-5.26-7.08-13.15-7.08-23.67v-72.63c0-4.08,1.07-7.14,3.22-9.18,2.15-2.04,5.1-3.06,8.86-3.06,3.97,0,7.01,1.02,9.1,3.06,2.09,2.04,3.14,5.1,3.14,9.18v71.66c0,4.4.94,7.65,2.82,9.74,1.88,2.09,4.37,3.14,7.49,3.14.86,0,1.69-.05,2.5-.16.81-.11,1.58-.21,2.33-.32,1.72-.11,2.92.46,3.62,1.69.7,1.24,1.05,3.73,1.05,7.49,0,3.12-.64,5.53-1.93,7.25-1.29,1.72-3.28,2.79-5.96,3.22-.97.11-2.15.21-3.54.32-1.4.11-2.79.16-4.19.16Z"/>
        <path class="cls-2" d="m732.47,263.01c-9.56,0-16.69-2.63-21.42-7.89-4.73-5.26-7.08-13.15-7.08-23.67v-72.63c0-4.08,1.07-7.14,3.22-9.18,2.15-2.04,5.1-3.06,8.86-3.06,3.97,0,7.01,1.02,9.1,3.06,2.09,2.04,3.14,5.1,3.14,9.18v71.66c0,4.4.94,7.65,2.82,9.74,1.88,2.09,4.37,3.14,7.49,3.14.86,0,1.69-.05,2.5-.16.81-.11,1.58-.21,2.33-.32,1.72-.11,2.92.46,3.62,1.69.7,1.24,1.05,3.73,1.05,7.49,0,3.12-.64,5.53-1.93,7.25-1.29,1.72-3.28,2.79-5.96,3.22-.97.11-2.15.21-3.54.32-1.4.11-2.79.16-4.19.16Z"/>
        <path class="cls-2" d="m786.1,263.01c-6.01,0-11.27-1.1-15.78-3.3s-8.05-5.21-10.63-9.02c-2.58-3.81-3.87-8.19-3.87-13.12,0-5.8,1.5-10.36,4.51-13.69,3-3.33,7.86-5.74,14.57-7.25,6.71-1.5,15.65-2.25,26.81-2.25h8.53v12.56h-8.37c-5.58,0-10.01.3-13.29.89-3.28.59-5.66,1.61-7.17,3.06-1.5,1.45-2.25,3.36-2.25,5.72,0,2.9,1.05,5.31,3.14,7.25,2.09,1.93,5.07,2.9,8.94,2.9,3.11,0,5.9-.7,8.37-2.09,2.47-1.39,4.4-3.33,5.8-5.8,1.39-2.47,2.09-5.42,2.09-8.86v-18.36c0-4.72-1.07-8.08-3.22-10.07-2.15-1.99-5.85-2.98-11.11-2.98-2.79,0-5.88.32-9.26.97-3.38.64-7.11,1.83-11.19,3.54-2.47.97-4.59,1.18-6.36.64-1.77-.54-3.14-1.58-4.11-3.14-.97-1.55-1.45-3.3-1.45-5.23s.54-3.76,1.61-5.48c1.07-1.72,2.9-3,5.47-3.86,4.94-1.93,9.63-3.3,14.09-4.11,4.45-.81,8.51-1.21,12.16-1.21,8.27,0,15.11,1.21,20.53,3.62,5.42,2.42,9.45,6.15,12.08,11.19,2.63,5.05,3.95,11.43,3.95,19.16v35.75c0,3.97-.99,7.01-2.98,9.1-1.99,2.09-4.75,3.14-8.29,3.14s-6.47-1.05-8.45-3.14c-1.99-2.09-2.98-5.13-2.98-9.1v-5.96l1.13,1.13c-.64,3.54-2.01,6.6-4.11,9.18s-4.73,4.59-7.89,6.04c-3.17,1.45-6.84,2.17-11.03,2.17Z"/>
      </g>
    </g>
  </g>
  <g>
    <path class="cls-1" d="m285.79,44.96c-24.86-12.77-56.7-23.89-85.73-36.38-.95-.41-1.61-.7-1.98-.65C184.68,2.77,170.17,0,155.06,0,147.37,0,140.11.4,133.22,1.19c-16.24,1.85-30.39,5.9-42.56,12.01-25.88,10.68-52.99,20.59-74.74,31.77C.64,52.8-.77,67.46.26,73.69c2.76,16.76,14.22,60.69,16.57,69.44,2.01,7.47,10.28,13.07,20.27,14.39,5.67,30.36,20.14,57.11,40.49,76.54h0c10.4,9.91,22.34,17.91,35.41,23.44,13.07,5.52,27.27,8.56,42.05,8.55,16.83,0,32.92-3.94,47.44-11,21.79-10.61,40.08-28.17,52.92-50.02,8.75-14.9,14.99-31.83,18.08-50,5.74-2.6,10.03-6.82,11.39-11.9,2.36-8.75,13.81-52.68,16.57-69.44,1.03-6.23-.38-20.89-15.65-28.74h0Zm-60.26,167.1c-9.16,10.53-20,18.97-31.91,24.77-11.91,5.8-24.89,8.97-38.57,8.97-12.01,0-23.48-2.45-34.17-6.96-10.68-4.51-20.58-11.1-29.32-19.43h0c-2.5-2.37-4.89-4.92-7.18-7.58.05.05.12.12.18.17,51.36-26.43,96.16-77.17,92.92-134.46-1.58-27.8-13.94-45.68-28.68-57.18,2.04-.06,4.11-.11,6.23-.11,13.91,0,27.07,2.76,39.02,7.87,4.79,2.04,9.37,4.48,13.75,7.25,3.72,10.15,8.51,23.84,14.44,42.3-8.36,53.44,10.85,75.02,30.21,79.3-4.53,21.31-14.05,40.26-26.93,55.07h0Z"/>
    <path class="cls-1" d="m157.25,181.4c-15,0-27.16,9.89-27.16,22.1s12.16,22.1,27.16,22.1,27.16-9.89,27.16-22.1-12.16-22.1-27.16-22.1Z"/>
  </g>
</svg>