<?xml version="1.0" encoding="UTF-8"?>
<svg id="Layer_1" data-name="Layer 1" xmlns="http://www.w3.org/2000/svg" viewBox="0 0 2033.31 648.45">
  <defs>
    <style>
      .cls-1 {
        fill: #6bcb77;
        stroke-width: 0px;
      }

      .cls-2 {
        letter-spacing: 0em;
      }

      .cls-3 {
        letter-spacing: 0em;
      }

      .cls-4 {
        letter-spacing: .05em;
      }

      .cls-5, .cls-6 {
        letter-spacing: .01em;
      }

      .cls-7, .cls-6 {
        fill: #ffa552;
        font-family: Nunito-Bold, Nunito;
        font-size: 326.33px;
        font-variation-settings: 'wght' 700;
        font-weight: 700;
      }
    </style>
  </defs>
  <g>
    <text class="cls-7" transform="translate(659.79 278.2)"><tspan class="cls-3" x="0" y="0">P</tspan><tspan class="cls-2" x="212.77" y="0">roy</tspan><tspan class="cls-5" x="705.2" y="0">e</tspan><tspan class="cls-4" x="885.33" y="0">c</tspan><tspan class="cls-2" x="1055.35" y="0">t</tspan><tspan class="cls-5" x="1182.29" y="0">o</tspan></text>
    <text class="cls-6" transform="translate(660.3 558.38)"><tspan x="0" y="0">Huella</tspan></text>
  </g>
  <g>
    <path class="cls-1" d="m579.13,119.78c-50.38-25.88-114.9-48.42-173.72-73.72-1.92-.84-3.26-1.42-4.01-1.32-27.17-10.45-56.57-16.08-87.19-16.06-15.58,0-30.3.82-44.26,2.41-32.91,3.75-61.59,11.96-86.24,24.33-52.45,21.64-107.38,41.72-151.46,64.37C1.29,135.68-1.56,165.38.53,178.01c5.6,33.96,28.81,122.99,33.58,140.72,4.07,15.13,20.84,26.48,41.08,29.16,11.49,61.52,40.81,115.72,82.04,155.09h0c21.07,20.08,45.26,36.29,71.76,47.49,26.48,11.19,55.26,17.35,85.21,17.33,34.11.02,66.7-7.99,96.13-22.3,44.16-21.49,81.22-57.08,107.23-101.35,17.74-30.19,30.38-64.5,36.63-101.31,11.64-5.26,20.32-13.81,23.08-24.11,4.78-17.73,27.99-106.76,33.58-140.72,2.09-12.63-.76-42.33-31.72-58.23Zm-122.1,338.61c-18.56,21.34-40.53,38.45-64.67,50.19-24.14,11.75-50.43,18.17-78.16,18.17-24.33,0-47.58-4.96-69.24-14.11-21.64-9.14-41.7-22.5-59.41-39.37h.02c-5.07-4.81-9.91-9.96-14.55-15.36.11.11.24.24.37.35,104.07-53.55,194.86-156.37,188.3-272.46-3.21-56.33-28.25-92.56-58.12-115.87,4.14-.13,8.32-.22,12.63-.22,28.19.02,54.86,5.6,79.07,15.95,9.7,4.14,18.99,9.07,27.86,14.7,7.54,20.56,17.24,48.31,29.26,85.71-16.94,108.29,21.98,152.01,61.22,160.7-9.18,43.18-28.47,81.59-54.58,111.59Z"/>
    <path class="cls-1" d="m318.65,396.26c-30.39,0-55.04,20.04-55.04,44.78s24.65,44.78,55.04,44.78,55.04-20.04,55.04-44.78-24.65-44.78-55.04-44.78Z"/>
  </g>
</svg>